PathFileType	4	(X/Y/Z)	OpenSim_Sub04_CSStiffKnee_Magnet.trc
DataRate	CameraRate	NumFrames	NumMarkers	Units	OrigDataRate	OrigDataStartFrame	OrigNumFrames
100	100	13	8	m	100	1	7413
Frame#	Time	torso_imu_offset_imu	pelvis_imu_offset_imu	tibia_r_imu_offset_imu	femur_r_imu_offset_imu	tibia_l_imu_offset_imu	femur_l_imu_offset_imu	toes_r_imu_offset_imu	toes_l_imu_offset_imu
				X1	Y1	Z1	X2	Y2	Z2	X3	Y3	Z3	X4	Y4	Z4	X5	Y5	Z5	X6	Y6	Z6	X7	Y7	Z7	X8		Y8	Z8	

1	0	0.90358465	0.21746498	-0.23999270	-0.63195944	0.21324641	-0.64495000	-0.57993947	-0.53696220	-0.25282579	-0.75292936	-0.40269970	0.03828724	-0.64476718	0.48914153	0.18942456	-0.39109139	0.14123127	0.48779916	-0.68306991	-0.19959678	-0.34616333	-0.65493894	-0.35896164	-0.33798596
2	0.01000000	0.90493972	0.21405293	-0.24168691	-0.63772276	0.21329085	-0.64850310	-0.57264043	-0.54281975	-0.25660499	-0.74729934	-0.40225383	0.03431686	-0.64134280	0.49232771	0.18531501	-0.38366475	0.13447057	0.48265926	-0.68378077	-0.19816876	-0.34515756	-0.65453858	-0.36121658	-0.33831189
3	0.02000000	0.90074148	0.21132864	-0.23797175	-0.63589364	0.20828861	-0.64949745	-0.57316951	-0.54474558	-0.24902727	-0.74640531	-0.39680511	0.03451259	-0.64271136	0.48710845	0.18430315	-0.38714766	0.13257917	0.48338043	-0.68328631	-0.19504161	-0.34732388	-0.65222983	-0.36093074	-0.33317578
4	0.03000000	0.90407797	0.21668133	-0.23760161	-0.63390377	0.20970583	-0.64387906	-0.57980602	-0.54348979	-0.24816461	-0.74994572	-0.40195671	0.03230981	-0.64041527	0.48377525	0.18195266	-0.38481678	0.13241234	0.48396202	-0.68319996	-0.19809414	-0.34786854	-0.65575068	-0.35962591	-0.33600974
5	0.04000000	0.90315666	0.21734954	-0.24017696	-0.63381186	0.21357981	-0.64577222	-0.57961549	-0.54354487	-0.24119651	-0.75112210	-0.40184130	0.03284214	-0.63922262	0.48640097	0.18734554	-0.38496390	0.13326415	0.49093684	-0.68507909	-0.19653086	-0.34662309	-0.65202332	-0.35803036	-0.33844874
6	0.05000000	0.89855391	0.21075571	-0.24282678	-0.63739177	0.21103850	-0.64723006	-0.57914704	-0.54267937	-0.25205713	-0.75251997	-0.39781369	0.03680013	-0.64305727	0.48543557	0.19080262	-0.38570208	0.13084981	0.48614530	-0.68220690	-0.19741473	-0.34543784	-0.65419324	-0.36072581	-0.33676962
7	0.06000000	0.90460575	0.21328856	-0.24081909	-0.63569909	0.21183008	-0.64313791	-0.58181090	-0.54033649	-0.25488664	-0.75427759	-0.39938654	0.03871810	-0.64024783	0.48551143	0.18627112	-0.38397539	0.13172860	0.48110948	-0.67792533	-0.19832178	-0.34539343	-0.65319987	-0.35707578	-0.33371281
8	0.07000000	0.90450822	0.21180596	-0.23706226	-0.63669818	0.21265810	-0.64598892	-0.57730076	-0.54591373	-0.24811582	-0.74884020	-0.39583552	0.04120192	-0.63958353	0.48842334	0.18910879	-0.38739032	0.13403750	0.48419720	-0.68206600	-0.19676780	-0.34868392	-0.65074334	-0.35314124	-0.33478850
9	0.08000000	0.90910793	0.21260168	-0.23499123	-0.63732664	0.21376331	-0.64697940	-0.57826211	-0.54702102	-0.25011867	-0.75219463	-0.39552548	0.04266324	-0.64262260	0.48912931	0.18980341	-0.38833437	0.13457417	0.48307465	-0.68515811	-0.19687368	-0.34650477	-0.65270336	-0.35721847	-0.33469071
10	0.09000000	0.90500925	0.21445257	-0.23483771	-0.63803820	0.21574337	-0.64445131	-0.58439375	-0.54412971	-0.24741528	-0.75380600	-0.39704001	0.03895470	-0.64402654	0.48900274	0.18786504	-0.38623833	0.12897595	0.48317267	-0.68431535	-0.19833824	-0.34410920	-0.65236656	-0.35862684	-0.33155932
11	0.10000000	0.90622660	0.21780316	-0.24061018	-0.63606879	0.21081537	-0.64988055	-0.57982601	-0.54479374	-0.25064721	-0.75243038	-0.39570305	0.03795269	-0.64004726	0.48894371	0.19021359	-0.38645699	0.13095070	0.48635003	-0.68494777	-0.19947806	-0.34610787	-0.65184169	-0.36032545	-0.33163955
12	0.11000000	0.90326995	0.21487282	-0.23653164	-0.63358278	0.20817123	-0.65211754	-0.57673278	-0.54476333	-0.24775063	-0.75078461	-0.39996409	0.04181058	-0.64144580	0.48930640	0.18924330	-0.38996926	0.13307979	0.48608571	-0.68205039	-0.19844809	-0.34655525	-0.65401662	-0.35903007	-0.33693037
13	0.12000000	0.90287739	0.21352681	-0.23808570	-0.63409500	0.20788197	-0.64585397	-0.57805979	-0.54374616	-0.24606833	-0.75197648	-0.39591693	0.04064831	-0.64257331	0.48743993	0.18966860	-0.38777313	0.13146700	0.48196003	-0.68745951	-0.19362117	-0.34810067	-0.65212200	-0.36182752	-0.33500360
